<?xml version="1.0" encoding="UTF-8" standalone="no"?>
<!DOCTYPE svg PUBLIC "-//W3C//DTD SVG 1.1//EN"
 "http://www.w3.org/Graphics/SVG/1.1/DTD/svg11.dtd">
<!-- Generated by graphviz version 2.44.0 (20200518.1210)
 -->
<!-- Title: ER Pages: 1 -->
<svg width="345pt" height="641pt"
 viewBox="0.00 0.00 344.80 641.00" xmlns="http://www.w3.org/2000/svg" xmlns:xlink="http://www.w3.org/1999/xlink">
<g id="graph0" class="graph" transform="scale(1 1) rotate(0) translate(4 637)">
<title>ER</title>
<polygon fill="white" stroke="transparent" points="-4,4 -4,-637 340.8,-637 340.8,4 -4,4"/>
<text text-anchor="middle" x="168.4" y="-10" font-family="Times,serif" font-size="20.00">Entity Relation Diagram</text>
<!-- course -->
<g id="node1" class="node">
<title>course</title>
<polygon fill="none" stroke="black" points="291.95,-560 237.95,-560 237.95,-524 291.95,-524 291.95,-560"/>
<text text-anchor="middle" x="264.95" y="-537.8" font-family="Times,serif" font-size="14.00">course</text>
</g>
<!-- C&#45;I -->
<g id="node10" class="node">
<title>C&#45;I</title>
<polygon fill="lightgrey" stroke="lightgrey" points="231.95,-471.2 198.33,-453.2 231.95,-435.2 265.57,-453.2 231.95,-471.2"/>
<text text-anchor="middle" x="231.95" y="-449" font-family="Times,serif" font-size="14.00">C&#45;I</text>
</g>
<!-- course&#45;&#45;C&#45;I -->
<g id="edge3" class="edge">
<title>course&#45;&#45;C&#45;I</title>
<path fill="none" stroke="black" d="M258.43,-523.85C252.27,-507.65 243.14,-483.62 237.37,-468.44"/>
<text text-anchor="middle" x="255.45" y="-493.4" font-family="Times,serif" font-size="14.00">n</text>
</g>
<!-- institute -->
<g id="node2" class="node">
<title>institute</title>
<polygon fill="none" stroke="black" points="238.56,-382.4 177.34,-382.4 177.34,-346.4 238.56,-346.4 238.56,-382.4"/>
<text text-anchor="middle" x="207.95" y="-360.2" font-family="Times,serif" font-size="14.00">institute</text>
</g>
<!-- name1 -->
<g id="node5" class="node">
<title>name1</title>
<ellipse fill="none" stroke="black" cx="125.95" cy="-275.6" rx="31.9" ry="18"/>
<text text-anchor="middle" x="125.95" y="-271.4" font-family="Times,serif" font-size="14.00">name</text>
</g>
<!-- institute&#45;&#45;name1 -->
<g id="edge5" class="edge">
<title>institute&#45;&#45;name1</title>
<path fill="none" stroke="black" d="M191.75,-346.25C176.81,-330.44 154.85,-307.19 140.47,-291.97"/>
</g>
<!-- S&#45;I -->
<g id="node12" class="node">
<title>S&#45;I</title>
<polygon fill="lightgrey" stroke="lightgrey" points="207.95,-293.6 175.86,-275.6 207.95,-257.6 240.04,-275.6 207.95,-293.6"/>
<text text-anchor="middle" x="207.95" y="-271.4" font-family="Times,serif" font-size="14.00">S&#45;I</text>
</g>
<!-- institute&#45;&#45;S&#45;I -->
<g id="edge6" class="edge">
<title>institute&#45;&#45;S&#45;I</title>
<path fill="none" stroke="black" d="M207.95,-346.25C207.95,-331.03 207.95,-308.92 207.95,-293.71"/>
<text text-anchor="middle" x="211.45" y="-315.8" font-family="Times,serif" font-size="14.00">1</text>
</g>
<!-- student -->
<g id="node3" class="node">
<title>student</title>
<polygon fill="none" stroke="black" points="233.39,-204.8 176.51,-204.8 176.51,-168.8 233.39,-168.8 233.39,-204.8"/>
<text text-anchor="middle" x="204.95" y="-182.6" font-family="Times,serif" font-size="14.00">student</text>
</g>
<!-- name2 -->
<g id="node6" class="node">
<title>name2</title>
<ellipse fill="none" stroke="black" cx="31.95" cy="-98" rx="31.9" ry="18"/>
<text text-anchor="middle" x="31.95" y="-93.8" font-family="Times,serif" font-size="14.00">name</text>
</g>
<!-- student&#45;&#45;name2 -->
<g id="edge9" class="edge">
<title>student&#45;&#45;name2</title>
<path fill="none" stroke="black" d="M176.38,-171.47C142.41,-154.42 86.37,-126.3 55.02,-110.57"/>
</g>
<!-- grade -->
<g id="node8" class="node">
<title>grade</title>
<ellipse fill="none" stroke="black" cx="113.95" cy="-98" rx="32.46" ry="18"/>
<text text-anchor="middle" x="113.95" y="-93.8" font-family="Times,serif" font-size="14.00">grade</text>
</g>
<!-- student&#45;&#45;grade -->
<g id="edge8" class="edge">
<title>student&#45;&#45;grade</title>
<path fill="none" stroke="black" d="M186.97,-168.65C170.29,-152.74 145.71,-129.3 129.76,-114.08"/>
</g>
<!-- number -->
<g id="node9" class="node">
<title>number</title>
<ellipse fill="none" stroke="black" cx="204.95" cy="-98" rx="40.57" ry="18"/>
<text text-anchor="middle" x="204.95" y="-93.8" font-family="Times,serif" font-size="14.00">number</text>
</g>
<!-- student&#45;&#45;number -->
<g id="edge10" class="edge">
<title>student&#45;&#45;number</title>
<path fill="none" stroke="black" d="M204.95,-168.65C204.95,-153.43 204.95,-131.32 204.95,-116.11"/>
</g>
<!-- S&#45;C -->
<g id="node11" class="node">
<title>S&#45;C</title>
<polygon fill="lightgrey" stroke="lightgrey" points="299.95,-116 263.24,-98 299.95,-80 336.66,-98 299.95,-116"/>
<text text-anchor="middle" x="299.95" y="-93.8" font-family="Times,serif" font-size="14.00">S&#45;C</text>
</g>
<!-- student&#45;&#45;S&#45;C -->
<g id="edge11" class="edge">
<title>student&#45;&#45;S&#45;C</title>
<path fill="none" stroke="black" d="M223.72,-168.65C242.65,-151.36 271.32,-125.16 287.57,-110.31"/>
<text text-anchor="middle" x="267.4" y="-138.2" font-family="Times,serif" font-size="14.00">m</text>
</g>
<!-- name0 -->
<g id="node4" class="node">
<title>name0</title>
<ellipse fill="none" stroke="black" cx="225.95" cy="-615" rx="31.9" ry="18"/>
<text text-anchor="middle" x="225.95" y="-610.8" font-family="Times,serif" font-size="14.00">name</text>
</g>
<!-- name0&#45;&#45;course -->
<g id="edge1" class="edge">
<title>name0&#45;&#45;course</title>
<path fill="none" stroke="black" d="M235,-597.53C241.12,-586.39 249.19,-571.7 255.41,-560.37"/>
</g>
<!-- code -->
<g id="node7" class="node">
<title>code</title>
<ellipse fill="none" stroke="black" cx="304.95" cy="-615" rx="29.04" ry="18"/>
<text text-anchor="middle" x="304.95" y="-610.8" font-family="Times,serif" font-size="14.00">code</text>
</g>
<!-- code&#45;&#45;course -->
<g id="edge2" class="edge">
<title>code&#45;&#45;course</title>
<path fill="none" stroke="black" d="M295.67,-597.53C289.4,-586.39 281.12,-571.7 274.74,-560.37"/>
</g>
<!-- C&#45;I&#45;&#45;institute -->
<g id="edge4" class="edge">
<title>C&#45;I&#45;&#45;institute</title>
<path fill="none" stroke="black" d="M227.77,-437.08C223.55,-421.83 217.05,-398.32 212.66,-382.43"/>
<text text-anchor="middle" x="226.45" y="-404.6" font-family="Times,serif" font-size="14.00">1</text>
</g>
<!-- S&#45;C&#45;&#45;course -->
<g id="edge12" class="edge">
<title>S&#45;C&#45;&#45;course</title>
<path fill="none" stroke="black" d="M299.33,-115.96C298.74,-133.46 297.95,-161.53 297.95,-185.8 297.95,-454.2 297.95,-454.2 297.95,-454.2 297.95,-479.67 285.38,-506.77 275.76,-523.78"/>
<text text-anchor="middle" x="301.45" y="-315.8" font-family="Times,serif" font-size="14.00">n</text>
</g>
<!-- S&#45;I&#45;&#45;student -->
<g id="edge7" class="edge">
<title>S&#45;I&#45;&#45;student</title>
<path fill="none" stroke="black" d="M207.37,-257.86C206.85,-242.69 206.08,-220.42 205.55,-205.08"/>
<text text-anchor="middle" x="210.45" y="-227" font-family="Times,serif" font-size="14.00">n</text>
</g>
</g>
</svg>
