<?xml version="1.0" encoding="UTF-8" standalone="no"?>
<!DOCTYPE svg PUBLIC "-//W3C//DTD SVG 1.1//EN"
 "http://www.w3.org/Graphics/SVG/1.1/DTD/svg11.dtd">
<!-- Generated by graphviz version 2.44.0 (20200518.1210)
 -->
<!-- Title: org_chart Pages: 1 -->
<svg width="1268pt" height="286pt"
 viewBox="0.00 0.00 1268.00 285.60" xmlns="http://www.w3.org/2000/svg" xmlns:xlink="http://www.w3.org/1999/xlink">
<g id="graph0" class="graph" transform="scale(1 1) rotate(0) translate(4 281.6)">
<title>org_chart</title>
<polygon fill="#efeffd" stroke="transparent" points="-4,4 -4,-281.6 1264,-281.6 1264,4 -4,4"/>
<g id="clust1" class="cluster">
<title>cluster_division_web</title>
<polygon fill="#efeffd" stroke="black" points="8,-8 8,-219 730,-219 730,-8 8,-8"/>
<text text-anchor="middle" x="369" y="-204.2" font-family="Monaco" font-size="12.00">Web</text>
</g>
<g id="clust2" class="cluster">
<title>cluster_conversion</title>
<polygon fill="#efeffd" stroke="black" points="395,-16 395,-188.6 722,-188.6 722,-16 395,-16"/>
<text text-anchor="middle" x="558.5" y="-173.8" font-family="Monaco" font-size="12.00">Web Conversion</text>
</g>
<g id="clust3" class="cluster">
<title>cluster_engagement</title>
<polygon fill="#efeffd" stroke="black" points="16,-99.6 16,-188.6 387,-188.6 387,-99.6 16,-99.6"/>
<text text-anchor="middle" x="201.5" y="-173.8" font-family="Monaco" font-size="12.00">Web Engagement</text>
</g>
<g id="clust5" class="cluster">
<title>cluster_platform</title>
<polygon fill="#efeffd" stroke="black" points="738,-16 738,-188.6 1252,-188.6 1252,-16 738,-16"/>
<text text-anchor="middle" x="995" y="-173.8" font-family="Monaco" font-size="12.00">Platform</text>
</g>
<!-- Pat -->
<g id="node1" class="node">
<title>Pat</title>
<path fill="#99ffcc" stroke="#99ffcc" d="M594.43,-108.1C594.43,-108.1 701.57,-108.1 701.57,-108.1 707.57,-108.1 713.57,-114.1 713.57,-120.1 713.57,-120.1 713.57,-145.7 713.57,-145.7 713.57,-151.7 707.57,-157.7 701.57,-157.7 701.57,-157.7 594.43,-157.7 594.43,-157.7 588.43,-157.7 582.43,-151.7 582.43,-145.7 582.43,-145.7 582.43,-120.1 582.43,-120.1 582.43,-114.1 588.43,-108.1 594.43,-108.1"/>
<text text-anchor="middle" x="648" y="-141.1" font-family="Arial" font-size="14.00">Pat Johnson</text>
<polyline fill="none" stroke="#99ffcc" points="582.43,-132.9 713.57,-132.9 "/>
<text text-anchor="middle" x="648" y="-116.3" font-family="Arial" font-size="14.00">Software Engineer</text>
</g>
<!-- Chris -->
<g id="node2" class="node">
<title>Chris</title>
<path fill="#99ffcc" stroke="#99ffcc" d="M434.06,-24.5C434.06,-24.5 499.94,-24.5 499.94,-24.5 505.94,-24.5 511.94,-30.5 511.94,-36.5 511.94,-36.5 511.94,-62.1 511.94,-62.1 511.94,-68.1 505.94,-74.1 499.94,-74.1 499.94,-74.1 434.06,-74.1 434.06,-74.1 428.06,-74.1 422.06,-68.1 422.06,-62.1 422.06,-62.1 422.06,-36.5 422.06,-36.5 422.06,-30.5 428.06,-24.5 434.06,-24.5"/>
<text text-anchor="middle" x="467" y="-57.5" font-family="Arial" font-size="14.00">Chris Roma</text>
<polyline fill="none" stroke="#99ffcc" points="422.06,-49.3 511.94,-49.3 "/>
<text text-anchor="middle" x="467" y="-32.7" font-family="Arial" font-size="14.00">Designer</text>
</g>
<!-- Daniel -->
<g id="node3" class="node">
<title>Daniel</title>
<path fill="#99ffcc" stroke="#99ffcc" d="M537.43,-24.5C537.43,-24.5 616.57,-24.5 616.57,-24.5 622.57,-24.5 628.57,-30.5 628.57,-36.5 628.57,-36.5 628.57,-62.1 628.57,-62.1 628.57,-68.1 622.57,-74.1 616.57,-74.1 616.57,-74.1 537.43,-74.1 537.43,-74.1 531.43,-74.1 525.43,-68.1 525.43,-62.1 525.43,-62.1 525.43,-36.5 525.43,-36.5 525.43,-30.5 531.43,-24.5 537.43,-24.5"/>
<text text-anchor="middle" x="577" y="-57.5" font-family="Arial" font-size="14.00">Daniel Boulud</text>
<polyline fill="none" stroke="#99ffcc" points="525.43,-49.3 628.57,-49.3 "/>
<text text-anchor="middle" x="577" y="-32.7" font-family="Arial" font-size="14.00">Manager</text>
</g>
<!-- Gerry -->
<g id="node4" class="node">
<title>Gerry</title>
<path fill="#99ffcc" stroke="#99ffcc" d="M414.92,-108.1C414.92,-108.1 557.08,-108.1 557.08,-108.1 563.08,-108.1 569.08,-114.1 569.08,-120.1 569.08,-120.1 569.08,-145.7 569.08,-145.7 569.08,-151.7 563.08,-157.7 557.08,-157.7 557.08,-157.7 414.92,-157.7 414.92,-157.7 408.92,-157.7 402.92,-151.7 402.92,-145.7 402.92,-145.7 402.92,-120.1 402.92,-120.1 402.92,-114.1 408.92,-108.1 414.92,-108.1"/>
<text text-anchor="middle" x="486" y="-141.1" font-family="Arial" font-size="14.00">Gerry Graf</text>
<polyline fill="none" stroke="#99ffcc" points="402.92,-132.9 569.08,-132.9 "/>
<text text-anchor="middle" x="486" y="-116.3" font-family="Arial" font-size="14.00">Lead Software Engineer</text>
</g>
<!-- Gerry&#45;&gt;Chris -->
<g id="edge5" class="edge">
<title>Gerry&#45;&gt;Chris</title>
<path fill="none" stroke="#ff99cc" d="M479.43,-108.09C477.69,-100.61 475.74,-92.24 473.87,-84.24"/>
<path fill="none" stroke="#99ccff" d="M481.38,-107.63C479.64,-100.16 477.69,-91.78 475.82,-83.78"/>
<polygon fill="#ff99cc" stroke="#ff99cc" points="478.23,-83.12 472.56,-74.17 471.42,-84.7 478.23,-83.12"/>
</g>
<!-- Gerry&#45;&gt;Daniel -->
<g id="edge6" class="edge">
<title>Gerry&#45;&gt;Daniel</title>
<path fill="none" stroke="#ff99cc" d="M512.14,-107.11C521.49,-98.73 532.12,-89.2 541.99,-80.35"/>
<path fill="none" stroke="#99ccff" d="M513.48,-108.6C522.83,-100.22 533.45,-90.69 543.33,-81.84"/>
<polygon fill="#ff99cc" stroke="#ff99cc" points="545.27,-83.45 550.38,-74.17 540.6,-78.24 545.27,-83.45"/>
</g>
<!-- Aaron -->
<g id="node5" class="node">
<title>Aaron</title>
<path fill="#99ffcc" stroke="#99ffcc" d="M215.26,-108.1C215.26,-108.1 366.74,-108.1 366.74,-108.1 372.74,-108.1 378.74,-114.1 378.74,-120.1 378.74,-120.1 378.74,-145.7 378.74,-145.7 378.74,-151.7 372.74,-157.7 366.74,-157.7 366.74,-157.7 215.26,-157.7 215.26,-157.7 209.26,-157.7 203.26,-151.7 203.26,-145.7 203.26,-145.7 203.26,-120.1 203.26,-120.1 203.26,-114.1 209.26,-108.1 215.26,-108.1"/>
<text text-anchor="middle" x="291" y="-141.1" font-family="Arial" font-size="14.00">Aaron Smith</text>
<polyline fill="none" stroke="#99ffcc" points="203.26,-132.9 378.74,-132.9 "/>
<text text-anchor="middle" x="291" y="-116.3" font-family="Arial" font-size="14.00">Senior Software Engineer</text>
</g>
<!-- Bob -->
<g id="node6" class="node">
<title>Bob</title>
<path fill="#99ffcc" stroke="#99ffcc" d="M35.92,-108.1C35.92,-108.1 178.08,-108.1 178.08,-108.1 184.08,-108.1 190.08,-114.1 190.08,-120.1 190.08,-120.1 190.08,-145.7 190.08,-145.7 190.08,-151.7 184.08,-157.7 178.08,-157.7 178.08,-157.7 35.92,-157.7 35.92,-157.7 29.92,-157.7 23.92,-151.7 23.92,-145.7 23.92,-145.7 23.92,-120.1 23.92,-120.1 23.92,-114.1 29.92,-108.1 35.92,-108.1"/>
<text text-anchor="middle" x="107" y="-141.1" font-family="Arial" font-size="14.00">Bob Williams</text>
<polyline fill="none" stroke="#99ffcc" points="23.92,-132.9 190.08,-132.9 "/>
<text text-anchor="middle" x="107" y="-116.3" font-family="Arial" font-size="14.00">Lead Software Engineer</text>
</g>
<!-- Diane -->
<g id="node7" class="node">
<title>Diane</title>
<path fill="#ffcc99" stroke="#ffcc99" d="M1124.43,-108.1C1124.43,-108.1 1231.57,-108.1 1231.57,-108.1 1237.57,-108.1 1243.57,-114.1 1243.57,-120.1 1243.57,-120.1 1243.57,-145.7 1243.57,-145.7 1243.57,-151.7 1237.57,-157.7 1231.57,-157.7 1231.57,-157.7 1124.43,-157.7 1124.43,-157.7 1118.43,-157.7 1112.43,-151.7 1112.43,-145.7 1112.43,-145.7 1112.43,-120.1 1112.43,-120.1 1112.43,-114.1 1118.43,-108.1 1124.43,-108.1"/>
<text text-anchor="middle" x="1178" y="-141.1" font-family="Arial" font-size="14.00">Diane Jackson</text>
<polyline fill="none" stroke="#ffcc99" points="1112.43,-132.9 1243.57,-132.9 "/>
<text text-anchor="middle" x="1178" y="-116.3" font-family="Arial" font-size="14.00">Software Engineer</text>
</g>
<!-- Harriet -->
<g id="node8" class="node">
<title>Harriet</title>
<path fill="#ffcc99" stroke="#ffcc99" d="M857.43,-24.5C857.43,-24.5 1006.57,-24.5 1006.57,-24.5 1012.57,-24.5 1018.57,-30.5 1018.57,-36.5 1018.57,-36.5 1018.57,-62.1 1018.57,-62.1 1018.57,-68.1 1012.57,-74.1 1006.57,-74.1 1006.57,-74.1 857.43,-74.1 857.43,-74.1 851.43,-74.1 845.43,-68.1 845.43,-62.1 845.43,-62.1 845.43,-36.5 845.43,-36.5 845.43,-30.5 851.43,-24.5 857.43,-24.5"/>
<text text-anchor="middle" x="932" y="-57.5" font-family="Arial" font-size="14.00">Harriet Jones</text>
<polyline fill="none" stroke="#ffcc99" points="845.43,-49.3 1018.57,-49.3 "/>
<text text-anchor="middle" x="932" y="-32.7" font-family="Arial" font-size="14.00">Junior Software Engineer</text>
</g>
<!-- Ian -->
<g id="node9" class="node">
<title>Ian</title>
<path fill="#ffcc99" stroke="#ffcc99" d="M1043.43,-24.5C1043.43,-24.5 1150.57,-24.5 1150.57,-24.5 1156.57,-24.5 1162.57,-30.5 1162.57,-36.5 1162.57,-36.5 1162.57,-62.1 1162.57,-62.1 1162.57,-68.1 1156.57,-74.1 1150.57,-74.1 1150.57,-74.1 1043.43,-74.1 1043.43,-74.1 1037.43,-74.1 1031.43,-68.1 1031.43,-62.1 1031.43,-62.1 1031.43,-36.5 1031.43,-36.5 1031.43,-30.5 1037.43,-24.5 1043.43,-24.5"/>
<text text-anchor="middle" x="1097" y="-57.5" font-family="Arial" font-size="14.00">Ian St. John&#45;Smith</text>
<polyline fill="none" stroke="#ffcc99" points="1031.43,-49.3 1162.57,-49.3 "/>
<text text-anchor="middle" x="1097" y="-32.7" font-family="Arial" font-size="14.00">Software Engineer</text>
</g>
<!-- Elsie -->
<g id="node10" class="node">
<title>Elsie</title>
<path fill="#ffcc99" stroke="#ffcc99" d="M944.92,-108.1C944.92,-108.1 1087.08,-108.1 1087.08,-108.1 1093.08,-108.1 1099.08,-114.1 1099.08,-120.1 1099.08,-120.1 1099.08,-145.7 1099.08,-145.7 1099.08,-151.7 1093.08,-157.7 1087.08,-157.7 1087.08,-157.7 944.92,-157.7 944.92,-157.7 938.92,-157.7 932.92,-151.7 932.92,-145.7 932.92,-145.7 932.92,-120.1 932.92,-120.1 932.92,-114.1 938.92,-108.1 944.92,-108.1"/>
<text text-anchor="middle" x="1016" y="-141.1" font-family="Arial" font-size="14.00">Elsie Chambers</text>
<polyline fill="none" stroke="#ffcc99" points="932.92,-132.9 1099.08,-132.9 "/>
<text text-anchor="middle" x="1016" y="-116.3" font-family="Arial" font-size="14.00">Lead Software Engineer</text>
</g>
<!-- Elsie&#45;&gt;Harriet -->
<g id="edge10" class="edge">
<title>Elsie&#45;&gt;Harriet</title>
<path fill="none" stroke="#ff99cc" d="M990.55,-108.58C982.01,-100.28 972.31,-90.85 963.27,-82.07"/>
<path fill="none" stroke="#99ccff" d="M991.95,-107.14C983.4,-98.84 973.71,-89.42 964.67,-80.64"/>
<polygon fill="#ff99cc" stroke="#ff99cc" points="966.18,-78.63 956.57,-74.17 961.31,-83.65 966.18,-78.63"/>
</g>
<!-- Elsie&#45;&gt;Ian -->
<g id="edge11" class="edge">
<title>Elsie&#45;&gt;Ian</title>
<path fill="none" stroke="#ff99cc" d="M1039.15,-107.15C1047.39,-98.85 1056.75,-89.43 1065.46,-80.65"/>
<path fill="none" stroke="#99ccff" d="M1040.57,-108.56C1048.81,-100.26 1058.17,-90.84 1066.88,-82.06"/>
<polygon fill="#ff99cc" stroke="#ff99cc" points="1068.75,-83.73 1073.31,-74.17 1063.78,-78.8 1068.75,-83.73"/>
</g>
<!-- Frank -->
<g id="node11" class="node">
<title>Frank</title>
<path fill="#ffcc99" stroke="#ffcc99" d="M758.43,-108.1C758.43,-108.1 907.57,-108.1 907.57,-108.1 913.57,-108.1 919.57,-114.1 919.57,-120.1 919.57,-120.1 919.57,-145.7 919.57,-145.7 919.57,-151.7 913.57,-157.7 907.57,-157.7 907.57,-157.7 758.43,-157.7 758.43,-157.7 752.43,-157.7 746.43,-151.7 746.43,-145.7 746.43,-145.7 746.43,-120.1 746.43,-120.1 746.43,-114.1 752.43,-108.1 758.43,-108.1"/>
<text text-anchor="middle" x="833" y="-141.1" font-family="Arial" font-size="14.00">Frank Blumenthal</text>
<polyline fill="none" stroke="#ffcc99" points="746.43,-132.9 919.57,-132.9 "/>
<text text-anchor="middle" x="833" y="-116.3" font-family="Arial" font-size="14.00">Junior Software Engineer</text>
</g>
<!-- Dave -->
<g id="node12" class="node">
<title>Dave</title>
<path fill="#99ccff" stroke="#99ccff" d="M344.76,-227.5C344.76,-227.5 433.24,-227.5 433.24,-227.5 439.24,-227.5 445.24,-233.5 445.24,-239.5 445.24,-239.5 445.24,-265.1 445.24,-265.1 445.24,-271.1 439.24,-277.1 433.24,-277.1 433.24,-277.1 344.76,-277.1 344.76,-277.1 338.76,-277.1 332.76,-271.1 332.76,-265.1 332.76,-265.1 332.76,-239.5 332.76,-239.5 332.76,-233.5 338.76,-227.5 344.76,-227.5"/>
<text text-anchor="middle" x="389" y="-260.5" font-family="Arial" font-size="14.00">Dave Copeland</text>
<polyline fill="none" stroke="#99ccff" points="332.76,-252.3 445.24,-252.3 "/>
<text text-anchor="middle" x="389" y="-235.7" font-family="Arial" font-size="14.00">Director</text>
</g>
<!-- Dave&#45;&gt;Pat -->
<g id="edge1" class="edge">
<title>Dave&#45;&gt;Pat</title>
<path fill="none" stroke="#ff99cc" d="M445.52,-250.48C484.39,-248.33 536.11,-240.76 575.5,-218.13 597.03,-205.88 615.23,-184.19 627.82,-165.9"/>
<path fill="none" stroke="#99ccff" d="M445.63,-252.48C484.68,-250.3 536.4,-242.74 576.5,-219.87 598.56,-207.17 616.76,-185.47 629.47,-167.04"/>
<polygon fill="#ff99cc" stroke="#ff99cc" points="631.8,-168.05 634.4,-157.78 625.96,-164.18 631.8,-168.05"/>
</g>
<!-- Dave&#45;&gt;Gerry -->
<g id="edge2" class="edge">
<title>Dave&#45;&gt;Gerry</title>
<path fill="none" stroke="#ff99cc" d="M408.09,-226.62C422.74,-208.9 442.81,-184.6 458.81,-165.23"/>
<path fill="none" stroke="#99ccff" d="M409.63,-227.9C424.28,-210.17 444.36,-185.87 460.35,-166.51"/>
<polygon fill="#ff99cc" stroke="#ff99cc" points="462.49,-167.85 466.16,-157.91 457.1,-163.39 462.49,-167.85"/>
</g>
<!-- Dave&#45;&gt;Aaron -->
<g id="edge3" class="edge">
<title>Dave&#45;&gt;Aaron</title>
<path fill="none" stroke="#ff99cc" d="M368.16,-227.9C353.3,-210.09 332.9,-185.66 316.7,-166.25"/>
<path fill="none" stroke="#99ccff" d="M369.7,-226.62C354.84,-208.81 334.44,-184.38 318.24,-164.97"/>
<polygon fill="#ff99cc" stroke="#ff99cc" points="320.14,-163.34 311.04,-157.91 314.76,-167.83 320.14,-163.34"/>
</g>
<!-- Dave&#45;&gt;Bob -->
<g id="edge4" class="edge">
<title>Dave&#45;&gt;Bob</title>
<path fill="none" stroke="#ff99cc" d="M332.49,-251.41C292.67,-248.77 239.22,-241.09 196.55,-219.9 170.87,-207.06 147.72,-184.8 131.21,-166.16"/>
<path fill="none" stroke="#99ccff" d="M332.62,-249.41C292.95,-246.79 239.5,-239.11 197.45,-218.1 172.26,-205.61 149.11,-183.35 132.71,-164.83"/>
<polygon fill="#ff99cc" stroke="#ff99cc" points="134.51,-163.09 125.33,-157.8 129.21,-167.66 134.51,-163.09"/>
</g>
<!-- Gary -->
<g id="node13" class="node">
<title>Gary</title>
<path fill="#99ccff" stroke="#99ccff" d="M984.21,-227.5C984.21,-227.5 1047.79,-227.5 1047.79,-227.5 1053.79,-227.5 1059.79,-233.5 1059.79,-239.5 1059.79,-239.5 1059.79,-265.1 1059.79,-265.1 1059.79,-271.1 1053.79,-277.1 1047.79,-277.1 1047.79,-277.1 984.21,-277.1 984.21,-277.1 978.21,-277.1 972.21,-271.1 972.21,-265.1 972.21,-265.1 972.21,-239.5 972.21,-239.5 972.21,-233.5 978.21,-227.5 984.21,-227.5"/>
<text text-anchor="middle" x="1016" y="-260.5" font-family="Arial" font-size="14.00">Gary Jones</text>
<polyline fill="none" stroke="#99ccff" points="972.21,-252.3 1059.79,-252.3 "/>
<text text-anchor="middle" x="1016" y="-235.7" font-family="Arial" font-size="14.00">Director</text>
</g>
<!-- Gary&#45;&gt;Diane -->
<g id="edge7" class="edge">
<title>Gary&#45;&gt;Diane</title>
<path fill="none" stroke="#ff99cc" d="M1059.57,-239.68C1074.93,-234.68 1091.84,-227.63 1105.43,-218.18 1125.46,-204.32 1143.36,-183.23 1156.21,-165.61"/>
<path fill="none" stroke="#99ccff" d="M1060.19,-241.58C1075.69,-236.53 1092.61,-229.48 1106.57,-219.82 1126.99,-205.62 1144.89,-184.52 1157.83,-166.79"/>
<polygon fill="#ff99cc" stroke="#ff99cc" points="1160.01,-168.02 1162.93,-157.84 1154.3,-163.98 1160.01,-168.02"/>
</g>
<!-- Gary&#45;&gt;Elsie -->
<g id="edge8" class="edge">
<title>Gary&#45;&gt;Elsie</title>
<path fill="none" stroke="#ff99cc" d="M1015,-227.26C1015,-210.17 1015,-186.96 1015,-167.96"/>
<path fill="none" stroke="#99ccff" d="M1017,-227.26C1017,-210.17 1017,-186.96 1017,-167.96"/>
<polygon fill="#ff99cc" stroke="#ff99cc" points="1019.5,-167.91 1016,-157.91 1012.5,-167.91 1019.5,-167.91"/>
</g>
<!-- Gary&#45;&gt;Frank -->
<g id="edge9" class="edge">
<title>Gary&#45;&gt;Frank</title>
<path fill="none" stroke="#ff99cc" d="M971.53,-240.28C956.34,-235.17 939.7,-228.42 925.48,-219.86 901.22,-205.2 877.86,-183.78 860.54,-166.04"/>
<path fill="none" stroke="#99ccff" d="M972.17,-238.39C957.1,-233.32 940.45,-226.56 926.52,-218.14 902.57,-203.72 879.21,-182.31 861.97,-164.64"/>
<polygon fill="#ff99cc" stroke="#ff99cc" points="863.68,-162.81 854.24,-158.01 858.63,-167.65 863.68,-162.81"/>
</g>
</g>
</svg>
